<svg width="150" height="180" viewBox="0 0 150 180" fill="none" xmlns="http://www.w3.org/2000/svg">
<rect width="150" height="180" fill="#454545"/>
<g clip-path="url(#clip0_0_1)">
<rect width="1440" height="4898" transform="translate(-639 -3635)" fill="white"/>
<rect width="1392" height="789" transform="translate(-621 -133)" fill="url(#paint0_linear_0_1)" fill-opacity="0.6"/>
<path d="M125.241 95.6301C125.033 72.8689 144.273 61.9417 145.143 61.409C134.316 45.9363 117.466 43.8167 111.455 43.5673C97.124 42.1504 83.4773 51.808 76.2129 51.808C68.9486 51.808 57.7156 43.7714 45.8327 43.9981C30.19 44.2248 15.789 52.8735 7.73553 66.5439C-8.49899 94.0545 3.59278 134.827 19.3979 157.158C27.1381 168.074 36.3519 180.372 48.4669 179.919C60.1409 179.466 64.5505 172.551 78.6382 172.551C92.726 172.551 96.6946 179.919 109.03 179.704C121.574 179.466 129.535 168.55 137.217 157.6C146.083 144.927 149.75 132.662 149.959 132.016C149.68 131.903 125.497 122.846 125.241 95.6301" fill="#B3B3B3"/>
<path d="M102.067 28.7955C108.496 21.1896 112.836 10.6136 111.641 0.0722656C102.38 0.435386 91.1706 6.10274 84.5211 13.7087C78.5682 20.4308 73.3463 31.199 74.7613 41.5257C85.0896 42.3079 95.6376 36.3903 102.067 28.7955Z" fill="#B3B3B3"/>
</g>
<defs>
<linearGradient id="paint0_linear_0_1" x1="696" y1="0" x2="696" y2="789" gradientUnits="userSpaceOnUse">
<stop stop-color="white" stop-opacity="0"/>
<stop offset="1" stop-color="#88A5EF" stop-opacity="0.54"/>
</linearGradient>
<clipPath id="clip0_0_1">
<rect width="1440" height="4898" fill="white" transform="translate(-639 -3635)"/>
</clipPath>
</defs>
</svg>
