<svg width="150" height="150" viewBox="0 0 150 150" fill="none" xmlns="http://www.w3.org/2000/svg">
<rect width="150" height="150" fill="#454545"/>
<g clip-path="url(#clip0_0_1)">
<rect width="1440" height="4898" transform="translate(-211 -3665)" fill="white"/>
<rect width="1392" height="789" transform="translate(-193 -163)" fill="url(#paint0_linear_0_1)" fill-opacity="0.6"/>
<path d="M69.7917 56.4583L51.25 70.8333C49.375 63.75 43.125 58.3333 35.4167 58.3333H22.0833V91.25H35.4167C43.125 91.25 49.7917 86.0417 51.25 78.75L69.7917 93.125L88.3333 78.75V91.25H109.375V84.5833H95.625V58.3333H87.9167V70.8333L70.2083 85.2083L66.4583 81.875L75 75L84.1667 67.9167L78.9583 63.5417L61.25 77.2917L57.5 73.9583L75.2083 60.625L69.7917 56.4583ZM29.1667 65H35C36.25 65 37.2917 65.2083 38.3333 65.8333C39.375 66.25 40.4167 67.0833 41.25 67.9167C42.0833 68.75 42.7083 69.7917 43.3333 71.0417C43.9583 72.2917 44.1667 73.5417 44.1667 75C44.1667 76.25 43.9583 77.5 43.5417 78.75C43.125 80 42.5 81.0417 41.6667 81.875C40.8333 82.7083 39.7917 83.5417 38.75 84.1667C37.7083 84.7917 36.4583 85 35.2083 85H29.1667V65ZM133.333 84.5833V91.25H112.292V58.3333H120V84.5833H133.333ZM75 0C33.9583 0 0 33.9583 0 75C0 116.042 33.5417 150 75 150C116.458 150 150 116.458 150 75C150 33.5417 116.042 0 75 0ZM75 7.70833C79.5833 7.70833 84.1667 8.125 88.5417 9.16667C92.9167 10 97.0833 11.4583 101.25 13.125C105.208 14.7917 109.167 16.875 112.708 19.375C116.25 21.875 119.583 24.5833 122.708 27.5C125.833 30.4167 128.542 33.9583 130.833 37.5C133.333 41.0417 135.417 45 137.083 48.9583C138.75 52.9167 140.208 57.2917 141.042 61.6667C141.875 66.0417 142.5 70.625 142.5 75.2083C142.5 79.7917 142.083 84.375 141.042 88.75C140.208 93.125 138.75 97.2917 137.083 101.458C135.417 105.417 133.333 109.375 130.833 112.917C128.333 116.458 125.625 119.792 122.708 122.917C119.792 126.042 116.25 128.75 112.708 131.042C109.167 133.542 105.208 135.625 101.25 137.292C97.2917 138.958 92.9167 140.417 88.5417 141.25C84.1667 142.083 79.5833 142.708 75 142.708C70.4167 142.708 65.8333 142.292 61.4583 141.25C57.0833 140.417 52.9167 138.958 48.75 137.292C44.7917 135.625 40.8333 133.542 37.2917 131.042C33.75 128.542 30.4167 125.833 27.2917 122.917C24.1667 120 21.4583 116.458 19.1667 112.917C16.6667 109.375 14.5833 105.417 12.9167 101.458C11.25 97.5 9.79167 93.125 8.95833 88.75C8.125 84.375 7.5 79.7917 7.5 75.2083C7.5 70.625 7.91667 66.0417 8.95833 61.6667C9.79167 57.2917 11.25 53.125 12.9167 48.9583C14.5833 45 16.6667 41.0417 19.1667 37.5C21.6667 33.9583 24.375 30.625 27.2917 27.5C30.2083 24.375 33.75 21.6667 37.2917 19.375C40.8333 16.875 44.7917 14.7917 48.75 13.125C52.7083 11.4583 57.0833 10 61.4583 9.16667C65.8333 8.125 70.4167 7.70833 75 7.70833Z" fill="#0076CE"/>
</g>
<defs>
<linearGradient id="paint0_linear_0_1" x1="696" y1="0" x2="696" y2="789" gradientUnits="userSpaceOnUse">
<stop stop-color="white" stop-opacity="0"/>
<stop offset="1" stop-color="#88A5EF" stop-opacity="0.54"/>
</linearGradient>
<clipPath id="clip0_0_1">
<rect width="1440" height="4898" fill="white" transform="translate(-211 -3665)"/>
</clipPath>
</defs>
</svg>
